<?xml version="1.0" encoding="UTF-8" standalone="no"?>
<svg width="418px" height="330px" viewBox="0 0 418 330" version="1.1" xmlns="http://www.w3.org/2000/svg" xmlns:xlink="http://www.w3.org/1999/xlink" xmlns:sketch="http://www.bohemiancoding.com/sketch/ns">
    <!-- Generator: Sketch 3.4.2 (15857) - http://www.bohemiancoding.com/sketch -->
    <title>Imported Layers + Path 172 + Imported Layers</title>
    <desc>Created with Sketch.</desc>
    <defs>
        <rect id="path-1" x="0" y="0" width="700" height="418"></rect>
    </defs>
    <g id="Page-1" stroke="none" stroke-width="1" fill="none" fill-rule="evenodd" sketch:type="MSPage">
        <g id="no-project" sketch:type="MSArtboardGroup" transform="translate(0.000000, -69.000000)">
            <g id="Imported-Layers-+-Path-172-+-Imported-Layers" sketch:type="MSLayerGroup" transform="translate(0.000000, 27.000000)">
                <mask id="mask-2" sketch:name="Mask" fill="white">
                    <use xlink:href="#path-1"></use>
                </mask>
                <use id="Mask" sketch:type="MSShapeGroup" xlink:href="#path-1"></use>
                <g mask="url(#mask-2)">
                    <g transform="translate(-17.000000, 25.000000)">
                        <path d="M240.202621,204.34763 L218.593688,183.29276 C218.581899,183.280819 218.565525,183.274848 218.553735,183.264233 L212.562679,177.423509 L266.576496,131.083159 L240.202621,204.34763 L240.202621,204.34763 Z M173.349986,145.533711 L262.226152,129.246157 L194.227967,162.501931 L173.349986,145.533711 L173.349986,145.533711 Z M209.473163,177.079195 C209.126681,177.399626 195.332909,194.426226 195.332909,194.426226 L195.332909,164.477587 C195.332909,164.465646 195.332909,164.459675 195.327015,164.447733 L262.334878,131.676917 C262.334878,131.676917 209.81768,176.752131 209.473163,177.079195 L209.473163,177.079195 Z M211.303163,182.406435 L213.657143,184.703848 L203.441499,191.615991 L211.303163,182.406435 L211.303163,182.406435 Z M272.233514,123.954742 C271.722634,123.371598 270.950418,123.102914 270.191957,123.237588 L167.791214,142.000351 C166.939747,142.158245 166.254643,142.804413 166.041121,143.650933 C165.828909,144.501434 166.128233,145.399701 166.801547,145.94702 L190.913794,165.544362 L190.913794,201.305199 C190.913794,202.155699 191.390615,202.929907 192.139252,203.308718 C192.893783,203.688193 193.790443,203.601285 194.457863,203.0878 L216.878964,187.839158 L239.725799,210.100119 C240.145638,210.507458 240.697782,210.729702 241.26237,210.729702 C241.446418,210.729702 241.630466,210.705819 241.814514,210.65938 C242.56315,210.461018 243.149353,209.889816 243.373354,209.143472 L272.694616,126.081657 C272.924513,125.347255 272.746359,124.537222 272.233514,123.954742 L272.233514,123.954742 Z" id="Imported-Layers" stroke="none" fill="#ABB5BD" fill-rule="evenodd" sketch:type="MSShapeGroup" transform="translate(219.681755, 167.320678) rotate(65.000000) translate(-219.681755, -167.320678) "></path>
                        <path d="M0,-1.42108547e-15 C0,-1.42108547e-15 113.826087,120 170,152" id="Path-172" stroke="#FF4F00" stroke-width="1" stroke-dasharray="2" fill="none" sketch:type="MSShapeGroup"></path>
                        <g id="Imported-Layers" stroke="none" stroke-width="1" fill="none" fill-rule="evenodd" sketch:type="MSLayerGroup" transform="translate(299.000000, 241.000000)">
                            <path d="M135.985294,105.355846 L0.806176471,105.355846 L0.806176471,53.9927308 L23.7365,0.884692308 L112.963647,0.884692308 L135.985294,53.9906923 L135.985294,105.355846 L135.985294,105.355846 Z M6.89441176,99.2404615 L129.897059,99.2404615 L129.897059,55.2647308 L108.975853,7.00007692 L27.7324118,7.00007692 L6.89441176,55.2606538 L6.89441176,99.2404615 L6.89441176,99.2404615 Z" id="Fill-1" fill="#AAB5BE" sketch:type="MSShapeGroup"></path>
                            <path d="M68.3937059,81.6077692 C50.1777059,81.6077692 43.9372647,66.3702692 42.8434118,56.1779615 L3.85029412,56.1779615 L3.85029412,50.0625769 L48.7185588,50.0625769 L48.749,53.0896923 C48.7591471,53.9988462 49.2766471,75.4923846 68.3937059,75.4923846 C87.4843824,75.4923846 87.7908235,54.0273846 87.7948824,53.1141538 L87.8070588,50.0788846 L132.931029,49.9239615 L132.951324,56.0393462 L93.7288824,56.1677692 C92.7283824,66.3723077 86.6259412,81.6077692 68.3937059,81.6077692" id="Fill-2" fill="#AAB5BE" sketch:type="MSShapeGroup"></path>
                            <path d="M110.207706,40.4288077 L27.4239412,40.4288077 L27.4239412,4.61915385 L29.4533529,4.61915385 L29.4533529,38.3923846 L108.178294,38.3923846 L108.178294,6.79419231 L110.207706,6.79419231 L110.207706,40.4288077" id="Fill-3" fill="#AAB5BE" sketch:type="MSShapeGroup"></path>
                            <path d="M25.0069118,53.4321538 L23.0749118,52.8083846 L27.4726471,39.0976923 L29.4026176,39.7235 L25.0069118,53.4321538" id="Fill-4" fill="#AAB5BE" sketch:type="MSShapeGroup"></path>
                            <path d="M113.186882,53.4688462 L108.239176,39.7581538 L110.146824,39.0630385 L115.0925,52.7737308 L113.186882,53.4688462" id="Fill-5" fill="#AAB5BE" sketch:type="MSShapeGroup"></path>
                        </g>
                    </g>
                </g>
            </g>
        </g>
    </g>
</svg>